<svg width="31" height="31" viewBox="0 0 31 31" fill="none" xmlns="http://www.w3.org/2000/svg">
<path d="M24.5417 3.875H6.45833C5.0375 3.875 3.875 5.0375 3.875 6.45833V24.5417C3.875 25.9625 5.0375 27.125 6.45833 27.125H24.5417C25.9625 27.125 27.125 25.9625 27.125 24.5417V6.45833C27.125 5.0375 25.9625 3.875 24.5417 3.875ZM12.6454 12.0151H11.2039V15.2597H12.6454C13.6064 15.2597 13.8467 14.539 13.8467 13.6981C13.848 12.856 13.4876 12.0151 12.6454 12.0151ZM12.6454 16.9415H11.2039V20.6667H9.04167V10.3333H12.5266C15.531 10.3333 15.8914 13.0975 15.8914 13.6981C15.8901 16.1006 14.2083 16.9415 12.6454 16.9415ZM21.7452 14.9833C21.6496 14.973 21.1342 14.9226 21.0335 14.9226C20.2107 14.9226 19.9459 15.4419 19.8452 15.695V20.6667H17.6958V12.9167H19.716L19.7767 13.8027C19.9382 13.4747 20.3696 12.7655 21.1769 12.7655C21.5308 12.7655 21.6961 12.834 21.7672 12.8637L21.7452 14.9833Z" fill="#786458"/>
</svg>
