<svg width="600" height="201" viewBox="0 0 600 201" fill="none" xmlns="http://www.w3.org/2000/svg">
<path d="M308.375 164.785C300.34 169.871 290.981 170.593 281.93 167.06C279.375 166.07 276.851 164.758 274.542 163.152C276.42 162.885 278.267 162.43 279.991 161.814C285.132 159.994 290.242 156.3 290.704 151.188C290.889 148.993 290.058 145.138 287.81 143.773C285.778 142.515 280.853 142.515 278.482 142.381C275.25 142.194 270.848 142.355 267.184 143.479C266.415 142.649 265.122 142.301 263.244 142.596C259.426 143.184 256.964 145.727 256.44 148.993C255.979 151.803 256.779 154.962 258.503 157.558C256.902 159.512 254.87 161.198 252.438 162.59C247.266 165.534 243.11 162.269 241.079 157.879C240.555 156.755 240.124 155.577 239.816 154.373C247.667 146.825 260.196 140.294 259.58 129.56C259.519 129.373 259.334 129.266 259.119 129.239C251.453 126.991 242.864 128.971 238.369 134.967C235.291 139.062 233.936 144.309 233.998 149.367C231.504 153.864 228.672 158.388 224.701 161.948C223.993 162.563 223.254 163.072 222.484 163.607L222.269 163.795C222.269 163.795 222.269 163.741 222.207 163.688C221.099 162.965 220.422 162.296 219.898 161.145C218.421 157.745 218.759 153.65 219.221 150.117C219.467 148.404 219.806 146.664 220.237 144.978C221.838 141.097 223.1 137.135 224.239 133.308C224.578 132.157 219.714 132.906 219.221 134.003C217.651 137.697 216.266 141.498 215.311 145.352C213.834 148.939 212.11 152.446 209.924 155.738C208.662 157.665 207.215 159.485 205.337 161.038C205.183 161.145 205.06 161.252 204.968 161.332C204.691 161.198 204.29 161.064 204.075 160.77C201.674 157.612 202.443 152.901 203.059 149.394C204.444 141.846 207.677 134.592 211.279 127.66C211.74 126.776 206.907 127.178 206.291 128.382C200.258 139.651 194.224 150.92 188.19 162.215C187.944 157.21 187.697 152.231 187.482 147.226C191.453 138.714 194.993 130.015 198.411 121.343C201.243 114.143 203.952 106.942 206.722 99.7154C207.892 99.6351 209.278 99.3407 209.739 98.9392C229.565 81.8621 248.713 63.3664 262.105 41.9264C268.323 31.9692 274.265 20.4328 275.496 9.00346C275.927 5.1223 273.095 1.88354 268.631 1.24115C264.29 0.625513 260.473 2.33858 257.364 4.82787C241.694 17.3546 231.197 34.1641 222.7 50.9199C213.003 70.0848 205.676 90.1062 198.072 109.94C194.532 119.228 190.961 128.597 187.02 137.831C186.989 137.403 186.989 136.948 186.958 136.52C186.712 131.514 186.712 126.455 186.22 121.45C186.035 119.416 184.773 118.372 182.279 118.452C176.338 118.693 174.922 124.394 173.198 128.409C167.194 142.435 165.871 157.719 169.257 172.387C169.565 173.672 173.844 172.119 174.306 171.423C177.384 166.632 180.217 161.707 182.803 156.702C182.864 157.745 182.895 158.789 182.956 159.833L183.511 171.155C183.572 172.333 188.159 170.968 188.559 170.192C191.576 164.571 194.593 158.923 197.61 153.275C197.333 156.246 196.871 162.242 201.212 163.393C205.768 164.571 210.263 160.984 212.664 158.12C213.064 157.638 213.434 157.157 213.803 156.675C213.803 159.726 214.296 163.393 217.035 165.053C220.114 166.9 224.762 165.053 227.318 163.313C228.98 162.189 230.489 160.85 231.812 159.351C232.643 159.592 234.737 159.111 235.845 158.575C237.723 162.858 241.325 166.311 247.236 165.882C252.254 165.508 256.994 163.233 260.658 159.967C261.366 160.636 262.197 161.198 263.121 161.653C264.537 162.349 266.045 162.831 267.615 163.099C270.632 165.508 274.142 167.408 277.251 168.666C288.826 173.297 302.094 171.53 312.284 165.053C314.378 163.714 309.36 164.143 308.375 164.785ZM220.483 65.588C227.964 48.5645 236.615 31.4606 249.298 16.8461C252.13 13.5805 255.178 10.4756 258.472 7.55806C259.827 6.35356 261.858 3.94457 263.675 3.32894C266.384 2.41888 269.339 5.01523 270.14 6.99596C271.094 9.32466 270.109 12.0281 269.555 14.3835C268.908 17.087 268.077 19.7904 267.153 22.4135C265.245 27.7133 262.813 32.8257 260.011 37.7775C247.359 60.1276 228.026 79.239 207.862 96.7979C211.833 86.3321 215.927 75.8932 220.483 65.588ZM173.29 165.642C171.72 155.39 172.459 145.005 175.537 134.967C176.399 132.13 177.446 129.346 178.677 126.589C179.262 125.331 179.878 124.046 180.524 122.788C180.555 122.708 180.832 122.092 181.079 121.637C181.109 121.718 181.14 121.798 181.14 121.905C181.202 122.815 181.232 123.752 181.263 124.662C181.633 132.505 182.033 140.374 182.402 148.217C179.632 154.132 176.615 159.967 173.29 165.642ZM204.814 161.466C204.475 161.573 204.26 161.867 204.814 161.466ZM239.139 150.17C239.662 148.645 240.155 147.146 240.678 145.62C240.832 145.165 240.186 145.005 239.293 145.085C239.447 143.693 239.755 142.301 240.124 140.99C241.633 135.636 245.419 129.105 252.808 130.497C254.562 130.818 254.686 131.273 254.47 132.879C254.285 134.351 253.762 135.77 253.023 137.082C251.422 140.026 248.898 142.515 246.343 144.817C244.034 146.905 241.571 148.886 239.201 150.92C239.201 150.679 239.201 150.411 239.139 150.17ZM272.171 161.359C269.555 159.191 267.4 156.621 266.138 153.757C266.076 153.623 266.014 153.49 265.984 153.356C267.092 151.268 267.8 149.046 268.015 146.878C268.077 146.37 268.077 145.861 267.985 145.433C269.154 144.737 270.725 144.335 272.664 144.282C275.311 144.202 277.959 144.523 280.545 144.924C284.116 145.513 285.655 148.457 285.686 151.428C285.717 156.139 280.976 160.395 275.773 161.252C274.511 161.466 273.31 161.493 272.171 161.359Z" fill="white"/>
<path d="M562.504 175.25C551.821 174.982 541.108 174.741 530.426 174.527C531.288 169.281 532.15 164.008 533.012 158.762C533.935 157.183 534.951 155.657 536.06 154.185C537.784 151.91 541.047 147.654 544.71 147.787C550.221 147.948 553.176 156.085 554.531 159.538C555.208 161.278 558.81 160.716 559.487 159.217C561.303 155.095 563.12 150.946 564.936 146.797C564.628 149.206 564.382 151.588 564.536 153.917C564.628 155.657 564.72 158.066 566.937 158.789C569.862 159.752 572.417 157.263 573.925 155.469C575.834 153.194 571.093 152.418 569.677 154.104C569.4 151.91 569.646 149.608 569.8 147.413C570.077 143.184 571.001 138.58 570.077 134.377C569.677 132.504 565.736 133.36 565.121 134.699C562.473 140.775 559.826 146.851 557.147 152.927C555.362 149.527 552.837 146.369 548.958 145.031C544.248 143.425 539.415 145.512 536.029 148.35C535.505 148.805 534.982 149.26 534.489 149.741C535.505 143.532 536.521 137.295 537.537 131.085C537.937 128.783 533.32 129.559 532.55 130.978C528.394 138.499 524.269 146.048 520.144 153.596C519.159 148.912 517.127 144.04 512.14 145.191C509.431 145.807 507.583 148.002 506.044 149.848C504.536 151.695 503.12 153.596 501.765 155.523L499.456 142.354C499.087 140.346 495.146 141.444 494.5 142.648L486.465 157.263C485.511 151.829 484.525 146.369 483.54 140.935C483.54 140.801 483.54 140.641 483.479 140.507C483.109 138.339 478.799 139.731 478.399 141.256C477.506 144.522 471.349 163.044 463.776 157.102L463.407 156.781C469.102 149.768 472.242 139.838 467.255 132.29C466.424 131.058 463.592 131.594 462.822 132.584C458.728 137.911 455.341 144.12 455.649 150.678C455.772 152.873 456.326 155.229 457.619 157.183C455.803 159.244 453.002 161.947 449.923 162.134C447.553 162.268 446.013 160.662 444.997 158.735C458.235 124.501 462.391 88.1515 473.504 53.3817C474.12 53.3817 474.705 53.3817 475.321 53.3817C496.685 53.569 518.081 54.5326 539.354 56.3528C548.22 57.1022 557.147 57.9855 565.921 59.4577C568.476 59.8592 571.001 56.7275 567.645 56.1654C549.728 53.1943 531.288 52.1237 513.094 51.1868C500.287 50.5444 487.419 50.1162 474.551 50.0626C475.013 48.6975 475.475 47.3592 475.967 45.9941C476.306 45.8603 476.614 45.6997 476.922 45.5391C491.267 38.3121 508.384 26.1868 508.876 10.4213C509 6.94164 508.261 3.56905 504.382 1.85599C500.872 0.330296 496.378 0.892394 493.484 3.19432C489.79 6.11188 487.358 11.1708 485.08 14.9716C482.34 19.4952 479.938 24.1526 477.753 28.917C475.382 34.0294 473.289 39.2222 471.411 44.4684C466.732 46.7168 461.745 48.6708 456.603 50.2232C453.864 50.2768 451.093 50.3838 448.353 50.4909C439.271 50.8656 430.098 51.4545 421.201 53.1408C419.015 53.569 418.276 55.871 420.8 56.326C432.745 58.4941 445.49 56.8881 457.342 53.3281C461.036 53.3014 464.731 53.3014 468.394 53.3281C464.423 65.8281 461.344 78.5691 458.389 91.2564C453.494 112.027 449.215 133.093 441.919 153.382C441.426 153.301 440.872 153.328 440.318 153.435C439.487 149.982 437.671 147.172 433.576 148.457C431.052 149.233 429.359 151.321 427.85 153.114C427.573 153.462 427.265 153.81 427.019 154.158C428.158 149.768 429.297 145.405 430.436 141.016C430.929 139.035 426.557 139.597 425.757 140.587C421.539 145.86 416.983 151.24 411.442 155.603C411.719 154.506 411.842 153.408 411.78 152.365C411.657 150.411 409.995 148.992 408.61 147.52C405.377 144.094 401.006 140.025 395.587 139.597C391.555 139.302 388.014 141.31 386.321 144.415C386.321 144.442 386.29 144.468 386.29 144.495C385.582 143.719 383.828 143.987 382.996 144.308C377.517 146.529 370.744 150.785 372.868 156.861C373.515 158.708 374.808 160.341 376.408 161.706C373.884 163.098 371.021 164.142 368.22 164.704C364.679 165.427 359.446 165.962 356.521 163.526C354.643 162.001 354.489 159.886 355.074 157.771C361.939 153.114 368.404 148.028 374.561 142.702C386.875 132.075 398.112 120.325 407.347 107.557C412.919 99.8217 420.246 89.7039 419.815 80.1483C419.415 71.5294 409.441 71.2618 401.868 73.0284C393.063 75.1162 384.813 79.1311 377.024 83.1729C370.005 86.8132 363.202 90.7479 356.552 94.8431C357.537 91.5241 358.553 88.205 359.569 84.9127C369.389 74.6344 380.441 65.1055 390.139 55.068C398.204 46.7168 405.993 37.8838 411.288 27.9534C413.72 23.4299 415.629 18.6654 416.552 13.7404C417.414 9.27034 417.814 4.39882 412.55 1.96306C403.992 -1.9984 395.033 6.91488 390.108 12.0005C383.643 18.6654 378.687 26.3742 374.469 34.2436C365.911 50.25 360.062 67.3003 354.767 84.3506C347.717 91.7382 341.344 99.5005 336.511 108.066C335.341 110.154 339.466 109.966 340.575 109.244C343.345 107.37 346.147 105.523 348.979 103.676C343.869 121.369 338.974 139.356 330.816 156.139C329.738 158.387 334.818 158.307 335.649 156.567C343.407 140.56 348.055 123.43 353.043 106.647C353.72 104.345 354.397 102.07 355.105 99.7682C361.355 95.78 367.727 91.9256 374.284 88.3121C381.734 84.19 389.492 80.2018 397.742 77.3913C403.53 75.4106 413.751 72.5466 414.674 80.2018C415.69 88.6065 408.794 98.1354 404.053 104.961C395.772 116.899 385.521 127.846 374.438 137.884C369.389 142.434 364.094 146.851 358.553 151.026C359.046 149.474 355.259 149.554 354.305 150.25C345.747 156.567 337.188 162.884 328.661 169.201C326.29 170.914 329.43 172.306 331.401 171.369C331.585 171.289 331.77 171.208 331.955 171.101C338.143 168.21 344.053 164.891 349.749 161.278C349.841 162.108 350.087 162.937 350.518 163.714C352.273 166.899 356.552 168.103 360.369 168.317C366.65 168.692 373.884 167.086 379.579 163.874C381.703 165.105 384.074 166.016 386.29 166.658C392.447 168.371 399.897 168.371 405.285 164.891C406.793 163.928 408.025 162.75 408.979 161.412C414.397 158.467 419.015 154.319 423.109 149.902C421.878 154.586 420.677 159.27 419.446 163.954C418.923 165.935 423.325 165.346 424.094 164.383C426.034 162.027 427.881 159.618 429.728 157.236C431.083 155.523 432.93 153.837 434.192 152.07C434.438 152.552 434.684 153.087 434.715 153.168C435.762 156.353 435.885 159.806 436.131 163.098C436.193 163.874 437.055 164.169 438.071 164.115C438.656 165.721 442.381 165.213 442.996 163.714C442.996 163.687 443.027 163.633 443.058 163.607C444.259 164.517 445.706 165.159 447.491 165.373C452.386 165.935 456.88 163.205 460.082 160.287C460.205 160.18 460.298 160.073 460.421 159.966C460.698 160.18 460.975 160.341 461.252 160.475C465.223 162.402 469.964 161.224 473.289 158.842C476.306 156.674 478.43 153.73 480.031 150.571C480.862 155.362 481.724 160.18 482.586 164.972C482.925 166.952 486.865 165.882 487.542 164.65C490.221 159.806 492.868 154.934 495.546 150.089C496.224 154.051 496.932 158.039 497.64 162.027C498.009 164.142 501.827 162.75 502.596 161.706C505.767 157.316 508.63 152.632 512.632 148.778C512.971 149.501 513.433 150.143 513.74 150.892C515.003 154.319 515.526 158.012 516.111 161.572C516.419 163.58 520.39 162.456 521.067 161.251C524.146 155.684 527.193 150.089 530.272 144.495C529.533 148.938 528.825 153.382 528.086 157.825C524.977 162.964 522.853 168.746 521.467 174.34C347.563 171.289 173.412 176.588 0 188.044C173.504 179.265 347.378 174.286 521.19 175.411C520.667 177.445 520.267 179.479 519.959 181.406C518.943 187.375 518.42 194.227 521.283 199.902C522.206 201.722 526.054 201.053 526.393 199.153C527.686 191.256 528.979 183.36 530.272 175.464C541.016 175.544 551.76 175.651 562.504 175.785L600 176.347L562.504 175.223V175.25ZM485.418 23.6708C487.481 19.629 489.728 15.6676 492.252 11.8399C494.007 9.13651 497.424 1.72216 502.011 5.30888C504.844 7.53051 503.828 12.402 503.089 15.2393C502.227 18.4513 500.595 21.4759 498.563 24.2329C493.884 30.6568 487.081 35.796 479.908 40.0252C479.169 40.4534 478.43 40.8817 477.691 41.2564C479.938 35.2875 482.494 29.3988 485.418 23.6708ZM466.824 50.0894C467.871 49.6611 468.887 49.2596 469.903 48.8046C469.749 49.2329 469.625 49.6344 469.472 50.0626C468.579 50.0626 467.717 50.0626 466.824 50.0894ZM372.714 48.4299C379.21 33.3603 387.522 16.417 402.545 6.19218C404.731 4.72002 407.04 3.27462 409.718 5.04122C412.519 6.86134 412.119 9.91274 411.719 12.5626C411.011 17.22 409.441 21.7436 407.286 26.0262C402.422 35.7157 395.033 44.3346 387.337 52.4449C379.425 60.7425 370.59 68.6922 362.124 76.9363C365.233 67.3271 368.681 57.7714 372.714 48.4299ZM351.965 93.5851C351.442 95.2982 350.949 97.0112 350.426 98.7243C348.763 99.7682 347.132 100.839 345.5 101.91C347.501 98.9384 349.718 96.0744 352.057 93.2639L351.965 93.5851ZM379.056 157.718C375.885 153.569 378.687 150.223 382.658 148.028C384.844 152.284 383.366 156.085 380.195 159.003C379.764 158.601 379.395 158.173 379.056 157.718ZM393.74 164.624C390.231 164.329 386.414 163.232 383.335 161.385C384.536 160.395 385.613 159.324 386.506 158.146C387.583 160.154 389.123 161.893 391.154 163.071C392.694 163.981 394.387 164.463 396.111 164.624C395.341 164.704 394.541 164.704 393.74 164.624ZM405.408 158.949C405.223 159.324 405.039 159.672 404.823 159.993C402.545 161.144 399.99 161.974 397.496 161.519C391.401 160.421 389.523 153.168 390.046 148.617C390.292 146.476 391.216 144.067 392.724 142.996C393.155 142.702 393.309 142.568 394.264 142.755C395.988 143.077 397.527 143.987 398.882 144.923C401.129 146.449 403.037 148.376 404.792 150.33C406.085 151.776 406.762 152.525 406.547 154.399C406.393 155.951 406.085 157.504 405.408 158.949ZM460.883 152.873C459.497 148.323 461.714 142.568 464.3 138.098C465.47 142.943 463.715 148.403 460.883 152.873Z" fill="white"/>
<path d="M573.341 125.732C573.434 126.268 572.787 126.669 572.356 126.937C571.494 127.472 570.417 127.767 569.401 128.008C568.847 128.141 568.292 128.248 567.708 128.302C567.215 128.356 566.722 128.382 566.23 128.356C565.86 128.356 565.522 128.302 565.214 128.141C564.968 128.141 564.783 127.954 564.691 127.74C564.629 127.392 564.567 127.071 564.475 126.723C564.29 125.679 564.075 124.608 563.859 123.564C563.859 123.243 563.952 123.002 564.229 122.788C564.444 122.654 564.629 122.52 564.844 122.36C565.706 121.824 566.784 121.53 567.769 121.289C568.323 121.155 568.908 121.048 569.493 120.995C569.955 120.941 570.447 120.914 570.94 120.941C571.309 120.941 571.648 120.995 571.987 121.155C572.233 121.209 572.387 121.343 572.51 121.557C572.787 122.949 573.064 124.341 573.341 125.732Z" fill="white"/>
</svg>
