<svg width="433" height="79" viewBox="0 0 433 79" fill="none" xmlns="http://www.w3.org/2000/svg">
<path d="M396.865 0.1242C289.888 0.400857 165.754 -0.487358 56.5276 0.441627C42.3126 2.82088 32.7812 0.374647 24.8277 4.55945C19.9652 7.16876 2.1078 3.21985 15.6189 10.4188C14.3608 16.6421 0.585716 12.9174 0.113546 14.6152C0.843796 14.9239 3.85571 15.1656 3.86744 15.6286C2.95536 16.1062 0.0255642 16.6304 2.38348 17.041C5.09919 17.3119 2.89671 17.6613 1.64736 17.7516C1.99929 18.0254 3.58297 18.0224 3.4158 18.27C2.01396 18.7272 4.67101 18.6486 4.52731 18.9485C1.80573 19.5776 8.79443 19.7843 8.7651 19.927C5.48631 20.4862 6.11685 21.0715 8.80616 21.4821C3.97009 22.7256 12.2199 23.1391 7.7973 23.8381C7.47763 24.0303 9.5892 24.1817 8.26947 24.3535C8.1287 24.3943 7.985 24.3943 8.08178 24.505C9.04958 24.8195 6.87936 24.7234 7.25475 25.0466C7.36032 25.3495 10.8385 25.4339 10.9177 25.6669C10.6479 25.7688 9.52761 25.7951 10.0848 26.0513C29.8074 27.4317 15.2523 27.0648 6.85003 28.7713C9.13756 29.7323 12.7565 30.2361 8.9352 32.0591C6.72685 33.2065 10.8444 33.1541 10.5863 33.8676C8.33399 34.6364 11.6509 34.5694 10.1171 35.7722C11.9061 37.2254 18.4314 37.1089 13.4985 39.6483C15.3432 44.2874 -9.45009 40.2628 4.03461 43.2274C0.843796 45.0271 1.29837 43.8651 3.37474 45.3707C0.0314298 45.6008 3.14306 45.5338 3.37181 46.0696C3.06387 46.1424 2.82339 46.3434 3.18118 46.3725C4.77072 46.6317 4.78245 46.5298 3.80585 46.9986C4.12845 47.5345 9.57454 47.4966 8.45423 47.7616C7.82076 47.8548 5.30448 48.3615 6.61834 48.8304C12.5571 49.6167 2.70022 49.2177 9.48362 51.2271C8.94986 51.396 7.3134 51.463 7.86475 51.7047C8.04365 51.8241 9.08477 51.9493 8.59794 52.0483C8.38385 52.0978 7.71225 52.2231 8.30173 52.3541C8.88534 52.5259 7.62427 52.4415 7.29287 52.6803C6.88229 53.219 11.3048 53.1521 10.8209 53.4549C8.81496 53.8335 11.2139 54.0228 12.0556 54.2412C18.6572 54.049 26.3146 54.6635 14.9356 55.6915C12.9472 56.4981 1.97876 54.8586 9.04958 57.465C10.076 57.6514 9.74463 57.9047 10.9676 58.1028C11.1201 59.1919 6.6418 60.2141 9.00265 60.8955C13.8211 62.8351 5.55669 63.301 17.1292 65.9802C15.9532 66.6646 13.2463 66.2772 13.302 68.1119C16.5104 69.1719 15.7655 68.5691 13.9942 70.7736C14.6658 71.7987 18.2965 72.6666 15.1145 73.1704C14.1203 73.9567 17.0941 73.4062 14.2757 75.5438C55.6859 82.8068 117.25 76.0039 166.021 78.255C247.701 77.5095 339.703 79.6238 413.388 77.3057C412.816 76.7378 415.775 77.2736 415.083 76.0738C417.687 74.3644 415.928 75.4477 413.681 74.6818C424.447 72.6928 404.103 74.0644 414.626 73.3684C419.518 72.8588 421.676 72.6724 417.239 71.6094C424.307 70.9163 409.458 70.8173 412.485 68.7788C412.67 68.4934 410.992 68.5604 411.441 68.2866C412.118 68.1643 411.743 68.1265 411.074 68.0391C408.775 67.6518 412.03 67.5644 412.608 67.2994C411.4 67.0839 409.705 67.1363 408.341 66.9733C407.191 66.8509 410.265 66.7053 410.347 66.5626C409.259 65.491 412.491 66.3704 412.646 65.5492C413.139 63.3156 413.021 64.3057 410.916 63.7087C414.986 63.6883 409.282 62.7564 413.664 62.1798C415.271 61.609 411.244 61.1256 411.183 60.3743C411.426 59.4424 413.711 60.0976 411.406 58.8454C412.409 57.797 409.664 58.8949 410.611 58.0329C412.403 57.3602 416.989 57.7213 416.538 55.9507C415.852 55.5138 416.69 55.2896 417.447 55.1527C419.881 54.0985 424.013 54.084 426.145 52.4939C430.902 50.103 424.104 50.1671 427.424 49.308C427.709 48.513 430.084 47.7034 429.682 47.2287C429.413 46.8414 427.515 46.92 427.861 46.2939C432.659 44.2204 418.881 44.3194 424.749 42.8459C426.327 39.4444 434.029 41.9402 432.595 37.1991C435.929 34.1326 417.359 35.2946 425.577 32.0766C425.568 31.2787 424.562 31.1622 425.629 30.3555C432.383 28.0316 422.694 26.6833 423.612 22.1053C420.312 19.4378 426.037 18.9776 424.497 16.4586C425.89 11.639 421.471 13.5552 424.711 10.4217C413.412 2.85582 427.556 6.72611 418.734 3.10045C435.416 -1.43673 403.132 0.438715 396.871 0.130024L396.865 0.1242Z" fill="#2D2926"/>
</svg>
