<svg width="49" height="39" viewBox="0 0 49 39" fill="none" xmlns="http://www.w3.org/2000/svg">
<path d="M43.9574 1.16037C41.5575 0.358024 38.9198 0.0141602 36.3903 0.0141602C32.1743 0.0141602 27.634 0.93113 24.4991 3.4528C21.3642 0.93113 16.8239 0.0141602 12.608 0.0141602C8.392 0.0141602 3.85174 0.93113 0.716797 3.4528V37.0368C0.716797 37.6099 1.2573 38.183 1.79781 38.183C2.01401 38.183 2.12212 38.0684 2.33832 38.0684C5.25706 36.5783 9.47301 35.5467 12.608 35.5467C16.8239 35.5467 21.3642 36.4637 24.4991 38.9854C27.4178 37.0368 32.7148 35.5467 36.3903 35.5467C39.9576 35.5467 43.6331 36.2345 46.6599 37.9538C46.8761 38.0684 46.9842 38.0684 47.2004 38.0684C47.7409 38.0684 48.2814 37.4953 48.2814 36.9222V3.4528C46.9842 2.42121 45.5789 1.73348 43.9574 1.16037ZM43.9574 32.1081C41.5791 31.3057 38.9847 30.9619 36.3903 30.9619C32.7148 30.9619 27.4178 32.452 24.4991 34.4005V8.03764C27.4178 6.08908 32.7148 4.59901 36.3903 4.59901C38.9847 4.59901 41.5791 4.94287 43.9574 5.74522V32.1081Z" fill="#2D2926"/>
</svg>
