<svg width="27" height="31" viewBox="0 0 27 31" fill="none" xmlns="http://www.w3.org/2000/svg">
<path d="M22.5 0.5C20.0325 0.5 18 2.53249 18 5C18 5.28643 18.0327 5.56568 18.085 5.83789L7.38281 12.0811C6.59781 11.4168 5.59812 11 4.5 11C2.03249 11 0 13.0325 0 15.5C0 17.9675 2.03249 20 4.5 20C5.59812 20 6.59781 19.5832 7.38281 18.9189L18.085 25.1592C18.0323 25.4323 18 25.7126 18 26C18 28.4675 20.0325 30.5 22.5 30.5C24.9675 30.5 27 28.4675 27 26C27 23.5325 24.9675 21.5 22.5 21.5C21.4012 21.5 20.4024 21.919 19.6172 22.584L8.91504 16.3379C8.96731 16.0657 9 15.7864 9 15.5C9 15.2136 8.96731 14.9343 8.91504 14.6621L19.6172 8.41895C20.4022 9.08322 21.4019 9.5 22.5 9.5C24.9675 9.5 27 7.46751 27 5C27 2.53249 24.9675 0.5 22.5 0.5ZM22.5 3.5C23.3462 3.5 24 4.15381 24 5C24 5.84619 23.3462 6.5 22.5 6.5C21.6538 6.5 21 5.84619 21 5C21 4.15381 21.6538 3.5 22.5 3.5ZM4.5 14C5.34619 14 6 14.6538 6 15.5C6 16.3462 5.34619 17 4.5 17C3.65381 17 3 16.3462 3 15.5C3 14.6538 3.65381 14 4.5 14ZM22.5 24.5C23.3462 24.5 24 25.1538 24 26C24 26.8462 23.3462 27.5 22.5 27.5C21.6538 27.5 21 26.8462 21 26C21 25.1538 21.6538 24.5 22.5 24.5Z" fill="#2D2926"/>
</svg>
